<svg xmlns="http://www.w3.org/2000/svg" style="display:none">
<symbol id="ic-arrow-up" viewBox="948.50 28.00 24 24" fill="none"><g id="Outline/Student/arrow-up"> <path vector-effect="non-scaling-stroke" id="Vector_24" d="M960.5 47V33M967.5 40L960.5 33L953.5 40" stroke="currentColor" stroke-width="1.5" stroke-linecap="round" stroke-linejoin="round"></path> </g></symbol>
<symbol id="ic-check" viewBox="788.50 67.50 24 24" fill="none"><g id="Outline/Student/check"> <path vector-effect="non-scaling-stroke" id="Vector_46" d="M808.5 74L797.5 85L792.5 80" stroke="currentColor" stroke-width="1.5" stroke-linecap="round" stroke-linejoin="round"></path> </g></symbol>
<symbol id="ic-chevron-btn-m" viewBox="0 0 24 24" fill="none"><path vector-effect="non-scaling-stroke" d="M9 6l6 6-6 6" stroke="currentColor" stroke-width="2.5" stroke-linecap="round" stroke-linejoin="round"/></symbol>
<symbol id="ic-chevron-down" viewBox="828.50 68.00 24 24" fill="none"><g id="Student/Outline/chevron-down"> <path vector-effect="non-scaling-stroke" id="Vector_47" d="M834.5 77L840.5 83L846.5 77" stroke="currentColor" stroke-width="1.5" stroke-linecap="round" stroke-linejoin="round"></path> </g></symbol>
<symbol id="ic-chevron-left" viewBox="868.50 68.00 24 24" fill="none"><g id="Student/Outline/chevron-left"> <path vector-effect="non-scaling-stroke" id="Vector_48" d="M883.5 86L877.5 80L883.5 74" stroke="currentColor" stroke-width="1.5" stroke-linecap="round" stroke-linejoin="round"></path> </g></symbol>
<symbol id="ic-clipboard" viewBox="188.50 108.00 24 24" fill="none"><g id="Student/Outline/clipboard"> <path vector-effect="non-scaling-stroke" id="Vector_57" d="M204.5 112H206.5C207.03 112 207.539 112.211 207.914 112.586C208.289 112.961 208.5 113.47 208.5 114V128C208.5 128.53 208.289 129.039 207.914 129.414C207.539 129.789 207.03 130 206.5 130H194.5C193.97 130 193.461 129.789 193.086 129.414C192.711 129.039 192.5 128.53 192.5 128V114C192.5 113.47 192.711 112.961 193.086 112.586C193.461 112.211 193.97 112 194.5 112H196.5M197.5 110H203.5C204.052 110 204.5 110.448 204.5 111V113C204.5 113.552 204.052 114 203.5 114H197.5C196.948 114 196.5 113.552 196.5 113V111C196.5 110.448 196.948 110 197.5 110Z" stroke="currentColor" stroke-width="1.5" stroke-linecap="round" stroke-linejoin="round"></path> </g></symbol>
<symbol id="ic-edit" viewBox="548.50 148.00 24 24" fill="none"><g id="Student/Outline/edit"> <path vector-effect="non-scaling-stroke" id="Vector_92" d="M568.5 162.66V168C568.5 168.53 568.289 169.039 567.914 169.414C567.539 169.789 567.03 170 566.5 170H552.5C551.97 170 551.461 169.789 551.086 169.414C550.711 169.039 550.5 168.53 550.5 168V154C550.5 153.47 550.711 152.961 551.086 152.586C551.461 152.211 551.97 152 552.5 152H557.84M566.5 150L570.5 154L560.5 164H556.5V160L566.5 150Z" stroke="currentColor" stroke-width="1.5" stroke-linecap="round" stroke-linejoin="round"></path> </g></symbol>
<symbol id="ic-image" viewBox="788.50 188.00 24 24" fill="none"><g id="Student/Outline/image"> <path id="Vector_124" d="M793.5 209H807.5C808.605 209 809.5 208.105 809.5 207V193C809.5 191.895 808.605 191 807.5 191H793.5C792.395 191 791.5 191.895 791.5 193V207C791.5 208.105 792.395 209 793.5 209ZM793.5 209L804.5 198L809.5 203M798.5 196.5C798.5 197.328 797.828 198 797 198C796.172 198 795.5 197.328 795.5 196.5C795.5 195.672 796.172 195 797 195C797.828 195 798.5 195.672 798.5 196.5Z" stroke="currentColor" stroke-width="1.5" stroke-linecap="round" stroke-linejoin="round"></path> </g></symbol>
<symbol id="ic-maximize-2" viewBox="468.50 228.00 24 24" fill="none"><g id="Student/Outline/maximize-2"> <path vector-effect="non-scaling-stroke" id="Vector_143" d="M489.5 237V231H483.5M489.5 231L482.5 238M471.5 243V249H477.5M471.5 249L478.5 242" stroke="currentColor" stroke-width="1.5" stroke-linecap="round" stroke-linejoin="round"></path> </g></symbol>
<symbol id="ic-mic" viewBox="748.50 228.00 24 24" fill="none"><g id="Student/Outline/mic"> <path vector-effect="non-scaling-stroke" id="Vector_150" d="M753.5 238V240C753.5 241.857 754.237 243.637 755.55 244.95C756.863 246.263 758.643 247 760.5 247C762.357 247 764.137 246.263 765.45 244.95C766.763 243.637 767.5 241.857 767.5 240V238M760.5 247V251M756.5 251H764.5M760.5 229C759.704 229 758.941 229.316 758.379 229.879C757.816 230.441 757.5 231.204 757.5 232V240C757.5 240.796 757.816 241.559 758.379 242.121C758.941 242.684 759.704 243 760.5 243C761.296 243 762.059 242.684 762.621 242.121C763.184 241.559 763.5 240.796 763.5 240V232C763.5 231.204 763.184 230.441 762.621 229.879C762.059 229.316 761.296 229 760.5 229Z" stroke="currentColor" stroke-width="1.5" stroke-linecap="round" stroke-linejoin="round"></path> </g></symbol>
<symbol id="ic-more-vertical" viewBox="68.50 268.00 24 24" fill="none"><g id="Student/Outline/more-vertical"> <g id="Vector_159"> <path vector-effect="non-scaling-stroke" d="M80.5 281C81.0523 281 81.5 280.552 81.5 280C81.5 279.448 81.0523 279 80.5 279C79.9477 279 79.5 279.448 79.5 280C79.5 280.552 79.9477 281 80.5 281Z" stroke="currentColor" stroke-width="1.5" stroke-linecap="round" stroke-linejoin="round"></path> <path vector-effect="non-scaling-stroke" d="M80.5 274C81.0523 274 81.5 273.552 81.5 273C81.5 272.448 81.0523 272 80.5 272C79.9477 272 79.5 272.448 79.5 273C79.5 273.552 79.9477 274 80.5 274Z" stroke="currentColor" stroke-width="1.5" stroke-linecap="round" stroke-linejoin="round"></path> <path vector-effect="non-scaling-stroke" d="M80.5 288C81.0523 288 81.5 287.552 81.5 287C81.5 286.448 81.0523 286 80.5 286C79.9477 286 79.5 286.448 79.5 287C79.5 287.552 79.9477 288 80.5 288Z" stroke="currentColor" stroke-width="1.5" stroke-linecap="round" stroke-linejoin="round"></path> </g> </g></symbol>
<symbol id="ic-play-filled" viewBox="868.50 268.00 24 24" fill="none"><g id="Filled/play"> <path vector-effect="non-scaling-stroke" id="Vector_137" d="M873.5 271L887.5 280L873.5 289V271Z" fill="currentColor" stroke="currentColor" stroke-width="1.5" stroke-linecap="round" stroke-linejoin="round"></path> </g></symbol>
<symbol id="ic-refresh-cw" viewBox="188.50 308.00 24 24" fill="none"><defs><clipPath id="clip33_260_369"> <rect vector-effect="non-scaling-stroke" width="24" height="24" fill="white" transform="translate(188.5 308)"></rect> </clipPath></defs><g id="Student/Outline/refresh-cw" clip-path="url(#clip33_260_369)"> <path vector-effect="non-scaling-stroke" id="Vector_188" d="M205.5 318H211.5V312M211.5 318L206.86 313.64C205.785 312.565 204.456 311.779 202.995 311.357C201.535 310.934 199.991 310.889 198.508 311.224C197.025 311.56 195.652 312.265 194.515 313.275C193.379 314.285 192.517 315.567 192.01 317M195.5 322H189.5V328M189.5 322L194.14 326.36C195.215 327.435 196.544 328.221 198.005 328.643C199.465 329.066 201.009 329.111 202.492 328.776C203.975 328.44 205.348 327.735 206.485 326.725C207.621 325.715 208.483 324.433 208.99 323" stroke="currentColor" stroke-width="1.5" stroke-linecap="round" stroke-linejoin="round"></path> </g></symbol>
<symbol id="ic-square" viewBox="268.50 348.00 24 24" fill="none"><g id="Student/Outline/square"> <path vector-effect="non-scaling-stroke" id="Vector_216" d="M287.5 351H273.5C272.395 351 271.5 351.895 271.5 353V367C271.5 368.105 272.395 369 273.5 369H287.5C288.605 369 289.5 368.105 289.5 367V353C289.5 351.895 288.605 351 287.5 351Z" stroke="currentColor" stroke-width="1.5" stroke-linecap="round" stroke-linejoin="round"></path> </g></symbol>
<symbol id="ic-thumbs-up" viewBox="748.34 348.00 24 24" fill="none"><g id="Student/Outline/thumbs-up"> <path vector-effect="non-scaling-stroke" id="Vector_228" d="M755.5 370H752.5C751.97 370 751.461 369.789 751.086 369.414C750.711 369.039 750.5 368.53 750.5 368V361C750.5 360.47 750.711 359.961 751.086 359.586C751.461 359.211 751.97 359 752.5 359H755.5M762.5 357V353C762.5 352.204 762.184 351.441 761.621 350.879C761.059 350.316 760.296 350 759.5 350L755.5 359V370H766.78C767.262 370.005 767.73 369.836 768.098 369.524C768.465 369.212 768.708 368.777 768.78 368.3L770.16 359.3C770.204 359.013 770.184 358.721 770.103 358.442C770.023 358.164 769.882 357.906 769.692 357.688C769.502 357.469 769.266 357.294 769.002 357.175C768.737 357.057 768.45 356.997 768.16 357H762.5Z" stroke="currentColor" stroke-width="1.5" stroke-linecap="round" stroke-linejoin="round"></path> </g></symbol>
<symbol id="ic-trash-2" viewBox="868.50 348.00 24 24" fill="none"><g id="Student/Outline/trash-2"> <path vector-effect="non-scaling-stroke" id="Vector_231" d="M871.5 354H873.5M873.5 354H889.5M873.5 354V368C873.5 368.53 873.711 369.039 874.086 369.414C874.461 369.789 874.97 370 875.5 370H885.5C886.03 370 886.539 369.789 886.914 369.414C887.289 369.039 887.5 368.53 887.5 368V354H873.5ZM876.5 354V352C876.5 351.47 876.711 350.961 877.086 350.586C877.461 350.211 877.97 350 878.5 350H882.5C883.03 350 883.539 350.211 883.914 350.586C884.289 350.961 884.5 351.47 884.5 352V354M878.5 359V365M882.5 359V365" stroke="currentColor" stroke-width="1.5" stroke-linecap="round" stroke-linejoin="round"></path> </g></symbol>
<symbol id="ic-x" viewBox="108.50 428.00 24 24" fill="none"><g id="Student/Outline/x"> <path vector-effect="non-scaling-stroke" id="Vector_264" d="M126.5 434L114.5 446M114.5 434L126.5 446" stroke="currentColor" stroke-width="1.5" stroke-linecap="round" stroke-linejoin="round"></path> </g></symbol>
</svg>
