<svg preserveAspectRatio="none" overflow="visible" style="display: block;" width="41.1031" height="35.0271" viewBox="0 0 41.1031 35.0271" fill="none" xmlns="http://www.w3.org/2000/svg">
<g id="Group">
<path id="Vector" d="M18.222 28.8236C16.332 28.5004 15.066 26.7047 15.3937 24.8147L19.1333 3.10442C19.461 1.21442 21.2523 -0.0515623 23.1423 0.276157C25.0323 0.599386 26.2982 2.39511 25.9705 4.2851L22.2265 25.9998C21.8987 27.8898 20.1075 29.1558 18.2175 28.8281L18.222 28.8236Z" fill="white" stroke="#27191C" stroke-width="0.44893" stroke-miterlimit="10"/>
<path id="Vector_2" d="M28.6281 33.6811C27.3307 32.2714 27.425 30.0762 28.8346 28.7788L35.0613 23.0594C36.4709 21.762 38.6662 21.8563 39.9636 23.2659C41.261 24.6755 41.1667 26.8708 39.7571 28.1682L33.5304 33.8876C32.1208 35.185 29.9255 35.0907 28.6281 33.6811Z" fill="white" stroke="#27191C" stroke-width="0.44893" stroke-miterlimit="10"/>
<path id="Vector_3" d="M3.61389 26.7361C5.48581 26.7361 7.00331 25.2186 7.00331 23.3467C7.00331 21.4748 5.48581 19.9573 3.61389 19.9573C1.74196 19.9573 0.224465 21.4748 0.224465 23.3467C0.224465 25.2186 1.74196 26.7361 3.61389 26.7361Z" fill="white" stroke="#27191C" stroke-width="0.44893" stroke-miterlimit="10"/>
</g>
</svg>
